<svg width="207" height="346" viewBox="0 0 207 346" fill="none" xmlns="http://www.w3.org/2000/svg">
<path fill-rule="evenodd" clip-rule="evenodd" d="M102.288 31.6951C98.2833 26.9945 95.5729 21.2339 96.0258 14.779C97.3308 -3.8195 123.22 0.271926 128.257 9.65883C133.293 19.0457 132.694 42.8564 126.186 44.5341C123.59 45.2031 118.06 43.5642 112.433 40.1721L115.965 65.1627H95.1074L102.288 31.6951Z" fill="#B28B67"/>
<path fill-rule="evenodd" clip-rule="evenodd" d="M113.475 16.833C114.273 27.9546 116.385 33.5154 119.811 33.5154C124.949 33.5154 129.309 30.2532 131.564 30.2532C133.207 30.2532 132.84 32.3101 131.751 33.835C130.852 35.0932 126.475 36.3059 126.475 38.2565C126.475 40.2071 129.933 38.698 129.933 39.8549C129.933 41.7684 130.541 45.3663 127.22 45.3663C123.859 45.3663 114.222 44.1414 112.57 39.1529C111.504 35.9334 110.815 29.2621 110.503 19.1389C110.299 19.1147 110.091 19.1022 109.881 19.1022C107.001 19.1022 104.667 21.4368 104.667 24.3166C104.667 25.7786 105.268 27.1 106.237 28.0468C105.031 29.7498 103.679 31.5289 102.129 33.3646C96.3082 29.8723 91.9887 19.6488 97.6797 9.82775C99.2527 5.01656 102.814 2.44673 107.019 1.25347C110.426 -0.171615 113.963 -0.332296 116.948 0.522031C122.8 1.024 128.026 2.8085 129.507 3.86827C129.507 9.40876 128.434 11.0526 119.264 10.9077C117.011 12.0976 115.279 14.1467 113.475 16.833Z" fill="#191847"/>
<path fill-rule="evenodd" clip-rule="evenodd" d="M88.1548 137.295L119.663 247.864L142.651 329.359H159.418L134.99 137.295H88.1548Z" fill="#191847"/>
<path fill-rule="evenodd" clip-rule="evenodd" d="M79.7282 137.295C78.9994 194.284 76.5143 225.367 75.7491 230.544C74.9839 235.722 63.4139 268.66 41.0391 329.359H58.4085C86.8934 271.129 102.794 238.191 106.111 230.544C109.429 222.898 119.665 191.815 135.084 137.295H79.7282Z" fill="#2F3676"/>
<path fill-rule="evenodd" clip-rule="evenodd" d="M39.4868 345.002L40.3559 326.752H58.6063C67.2601 332.836 78.558 337.76 92.4999 341.526V345.002H59.4754L48.1775 343.264V345.002H39.4868Z" fill="#191847"/>
<path fill-rule="evenodd" clip-rule="evenodd" d="M140.299 345.002L141.168 326.752H159.418C168.072 332.836 179.37 337.76 193.312 341.526V345.002H160.287L148.99 343.264V345.002H140.299Z" fill="#191847"/>
<path fill-rule="evenodd" clip-rule="evenodd" d="M161.468 123.051L187.702 145.292C195.061 147.84 201.152 150.797 205.973 154.161C207.086 155.327 208.369 157.621 203.466 156.897C198.563 156.173 193.373 155.633 192.575 157.267C191.777 158.901 194.62 161.12 193.086 163.293C192.063 164.741 187.998 160.646 180.889 151.006L154.298 137.736L161.468 123.051ZM42.6739 113.427L58.0666 115.663C41.5439 151.511 32.6859 170.47 31.4925 172.539C28.8075 177.194 31.9653 185.303 33.1997 189.595C26.9612 191.397 28.9536 181.758 21.0654 184.162C13.8654 186.356 7.92386 191.331 0.792939 185.416C-0.0837657 184.688 -0.822282 182.31 1.96429 180.925C8.90665 177.473 19.0997 171.156 20.6841 168.828C22.8448 165.654 30.1747 147.187 42.6739 113.427Z" fill="#B28B67"/>
<path fill-rule="evenodd" clip-rule="evenodd" d="M107.009 50.6771L116.547 47.5229C129.485 79.8437 148.781 111.116 181.021 137.53L173.048 151.284C144.714 134.594 117.893 121.628 107.009 96.5835C103.356 88.1778 106.711 60.7278 107.009 50.6771Z" fill="#C5CFD6"/>
<path fill-rule="evenodd" clip-rule="evenodd" d="M74.2495 141.641C101.572 144.538 123.077 144.538 138.766 141.641C140.71 141.282 141.016 138.027 140.115 135.819C126.078 101.424 116.452 71.4127 116.452 47.5229C113.876 48.8215 109.368 49.0161 102.929 48.1067C85.6223 72.7259 77.6672 100.974 74.2495 141.641Z" fill="#323337"/>
<path fill-rule="evenodd" clip-rule="evenodd" d="M98.6263 46.0433H105.839C107.518 55.9201 112.815 189.668 129.166 233.419H40.6907C42.6089 193.339 57.7397 145.193 73.0674 104.904C59.514 117.306 47.701 138.322 37.6286 167.95L21.0562 163.696C33.3783 110.599 58.7127 71.572 97.0593 46.616C97.1423 46.4242 97.225 46.2333 97.3072 46.0433H97.9455C98.1804 45.8925 98.4158 45.7423 98.6517 45.5925L98.6263 46.0433Z" fill="#DDE3E9"/>
</svg>
