<svg width="60" height="60" viewBox="0 0 60 60" fill="none" xmlns="http://www.w3.org/2000/svg">
<circle cx="30" cy="30" r="30" fill="#C3C4C6"/>
<path d="M36.8214 24.8699H22.1786C20.2375 24.8723 18.3766 25.7205 17.004 27.2284C15.6314 28.7363 14.8594 30.7808 14.8571 32.9132V34.5219C14.8594 36.6544 15.6314 38.6989 17.004 40.2067C18.3766 41.7146 20.2375 42.5629 22.1786 42.5653H36.8214C38.7625 42.5629 40.6234 41.7146 41.996 40.2067C43.3686 38.6989 44.1406 36.6544 44.1429 34.5219V32.9132C44.1406 30.7808 43.3686 28.7363 41.996 27.2284C40.6234 25.7205 38.7625 24.8723 36.8214 24.8699V24.8699ZM41.2143 34.5219C41.213 35.8014 40.7497 37.0281 39.9262 37.9329C39.1027 38.8376 37.9861 39.3465 36.8214 39.3479H22.1786C21.0139 39.3465 19.8973 38.8376 19.0738 37.9329C18.2503 37.0281 17.787 35.8014 17.7857 34.5219V32.9132C17.787 31.6337 18.2503 30.4071 19.0738 29.5023C19.8973 28.5976 21.0139 28.0887 22.1786 28.0872H36.8214C37.9861 28.0887 39.1027 28.5976 39.9262 29.5023C40.7497 30.4071 41.213 31.6337 41.2143 32.9132V34.5219ZM38.2857 33.7176C38.2857 34.1948 38.1569 34.6614 37.9155 35.0582C37.6742 35.455 37.3312 35.7643 36.9298 35.9469C36.5285 36.1296 36.0869 36.1773 35.6608 36.0842C35.2347 35.9911 34.8434 35.7613 34.5362 35.4238C34.229 35.0864 34.0198 34.6564 33.9351 34.1883C33.8503 33.7203 33.8938 33.2351 34.0601 32.7942C34.2263 32.3532 34.5078 31.9764 34.869 31.7112C35.2302 31.4461 35.6549 31.3046 36.0893 31.3046C36.6716 31.3053 37.2299 31.5597 37.6417 32.0121C38.0535 32.4645 38.2851 33.0778 38.2857 33.7176V33.7176ZM25.1071 33.7176C25.1071 34.1948 24.9783 34.6614 24.737 35.0582C24.4956 35.455 24.1526 35.7643 23.7513 35.9469C23.3499 36.1296 22.9083 36.1773 22.4822 36.0842C22.0561 35.9911 21.6648 35.7613 21.3576 35.4238C21.0504 35.0864 20.8412 34.6564 20.7565 34.1883C20.6717 33.7203 20.7152 33.2351 20.8815 32.7942C21.0477 32.3532 21.3292 31.9764 21.6904 31.7112C22.0516 31.4461 22.4763 31.3046 22.9107 31.3046C23.4931 31.3053 24.0514 31.5597 24.4631 32.0121C24.8749 32.4645 25.1065 33.0778 25.1071 33.7176ZM44.1429 12.0005C42.8447 12.0023 41.5837 12.477 40.5574 13.3503C39.531 14.2236 38.7972 15.4461 38.4709 16.8265H20.5291C20.1727 15.3099 19.325 13.9882 18.1451 13.1092C16.9651 12.2301 15.5338 11.854 14.1195 12.0513C12.7052 12.2486 11.4049 13.0059 10.4624 14.1811C9.51995 15.3564 8.99999 16.8689 9 18.4352V34.5219C9.00392 38.3604 10.3936 42.0405 12.8642 44.7547C15.3349 47.4689 18.6846 48.9957 22.1786 49H36.8214C40.3154 48.9957 43.6651 47.4689 46.1358 44.7547C48.6064 42.0405 49.9961 38.3604 50 34.5219V18.4352C49.9983 16.7292 49.3806 15.0936 48.2826 13.8873C47.1845 12.6809 45.6957 12.0024 44.1429 12.0005V12.0005ZM47.0714 34.5219C47.0684 37.5074 45.9875 40.3697 44.0659 42.4808C42.1443 44.5918 39.539 45.7793 36.8214 45.7826H22.1786C19.461 45.7793 16.8557 44.5918 14.9341 42.4808C13.0125 40.3697 11.9316 37.5074 11.9286 34.5219V18.4352C11.9286 17.5819 12.2371 16.7635 12.7863 16.1602C13.3355 15.5568 14.0804 15.2178 14.8571 15.2178C15.6338 15.2178 16.3787 15.5568 16.928 16.1602C17.4772 16.7635 17.7857 17.5819 17.7857 18.4352C17.7857 18.8618 17.94 19.271 18.2146 19.5727C18.4892 19.8744 18.8616 20.0438 19.25 20.0438H39.75C40.1384 20.0438 40.5108 19.8744 40.7854 19.5727C41.06 19.271 41.2143 18.8618 41.2143 18.4352C41.2143 17.5819 41.5228 16.7635 42.072 16.1602C42.6213 15.5568 43.3662 15.2178 44.1429 15.2178C44.9196 15.2178 45.6645 15.5568 46.2137 16.1602C46.7629 16.7635 47.0714 17.5819 47.0714 18.4352V34.5219Z" fill="white"/>
</svg>
