<svg width="60" height="60" viewBox="0 0 60 60" fill="none" xmlns="http://www.w3.org/2000/svg">
<circle cx="30" cy="30" r="30" fill="#C3C4C6"/>
<path d="M15.75 19.9132H23.25C24.2442 19.9143 25.1974 20.304 25.9004 20.9968C26.6034 21.6897 26.9989 22.629 27 23.6088V24.3479C26.9989 25.3277 26.6034 26.267 25.9004 26.9599C25.1974 27.6527 24.2442 28.0424 23.25 28.0435H15.75C14.7558 28.0424 13.8026 27.6527 13.0996 26.9599C12.3966 26.267 12.0011 25.3277 12 24.3479V23.6088C12.0011 22.629 12.3966 21.6897 13.0996 20.9968C13.8026 20.304 14.7558 19.9143 15.75 19.9132ZM13.5 24.3479C13.5007 24.9358 13.7379 25.4994 14.1597 25.9151C14.5816 26.3308 15.1535 26.5646 15.75 26.5653H23.25C23.8465 26.5646 24.4184 26.3308 24.8403 25.9151C25.2621 25.4994 25.4993 24.9358 25.5 24.3479V23.6088C25.4993 23.0209 25.2621 22.4573 24.8403 22.0416C24.4184 21.6259 23.8465 21.3921 23.25 21.3914H15.75C15.1535 21.3921 14.5816 21.6259 14.1597 22.0416C13.7379 22.4573 13.5007 23.0209 13.5 23.6088V24.3479ZM15 23.9784C15 24.1976 15.066 24.412 15.1896 24.5943C15.3132 24.7766 15.4889 24.9187 15.6945 25.0026C15.9 25.0866 16.1262 25.1085 16.3445 25.0657C16.5627 25.023 16.7632 24.9174 16.9205 24.7623C17.0778 24.6073 17.185 24.4097 17.2284 24.1946C17.2718 23.9796 17.2495 23.7567 17.1644 23.5541C17.0792 23.3515 16.935 23.1783 16.75 23.0565C16.565 22.9347 16.3475 22.8697 16.125 22.8697C15.8267 22.87 15.5408 22.9869 15.3299 23.1947C15.119 23.4026 15.0003 23.6844 15 23.9784ZM21.75 23.9784C21.75 24.1976 21.816 24.412 21.9396 24.5943C22.0632 24.7766 22.2389 24.9187 22.4445 25.0026C22.65 25.0866 22.8762 25.1085 23.0945 25.0657C23.3127 25.023 23.5132 24.9174 23.6705 24.7623C23.8278 24.6073 23.935 24.4097 23.9784 24.1946C24.0218 23.9796 23.9995 23.7567 23.9144 23.5541C23.8292 23.3515 23.685 23.1783 23.5 23.0565C23.315 22.9347 23.0975 22.8697 22.875 22.8697C22.5767 22.87 22.2908 22.9869 22.0799 23.1947C21.869 23.4026 21.7503 23.6844 21.75 23.9784ZM12 14.0002C12.6649 14.001 13.3108 14.2192 13.8365 14.6204C14.3622 15.0216 14.738 15.5833 14.9051 16.2176H24.0949C24.2774 15.5208 24.7116 14.9135 25.3159 14.5096C25.9203 14.1057 26.6534 13.9329 27.3778 14.0236C28.1022 14.1142 28.7682 14.4622 29.251 15.0021C29.7337 15.5421 30 16.2371 30 16.9567V24.3479C29.998 26.1115 29.2862 27.8024 28.0208 29.0495C26.7553 30.2965 25.0396 30.998 23.25 31H15.75C13.9604 30.998 12.2447 30.2965 10.9792 29.0495C9.71381 27.8024 9.00201 26.1115 9 24.3479V16.9567C9.00089 16.1729 9.31725 15.4214 9.87967 14.8671C10.4421 14.3129 11.2046 14.0011 12 14.0002ZM10.5 24.3479C10.5016 25.7196 11.0552 27.0347 12.0394 28.0047C13.0236 28.9746 14.3581 29.5202 15.75 29.5218H23.25C24.6419 29.5202 25.9764 28.9746 26.9606 28.0047C27.9448 27.0347 28.4984 25.7196 28.5 24.3479V16.9567C28.5 16.5646 28.342 16.1886 28.0607 15.9114C27.7794 15.6342 27.3978 15.4785 27 15.4785C26.6022 15.4785 26.2206 15.6342 25.9393 15.9114C25.658 16.1886 25.5 16.5646 25.5 16.9567C25.5 17.1527 25.421 17.3407 25.2803 17.4793C25.1397 17.618 24.9489 17.6958 24.75 17.6958H14.25C14.0511 17.6958 13.8603 17.618 13.7197 17.4793C13.579 17.3407 13.5 17.1527 13.5 16.9567C13.5 16.5646 13.342 16.1886 13.0607 15.9114C12.7794 15.6342 12.3978 15.4785 12 15.4785C11.6022 15.4785 11.2206 15.6342 10.9393 15.9114C10.658 16.1886 10.5 16.5646 10.5 16.9567V24.3479Z" fill="white"/>
<path d="M34.75 36.9132H42.25C43.2442 36.9143 44.1974 37.304 44.9004 37.9968C45.6034 38.6897 45.9989 39.629 46 40.6088V41.3479C45.9989 42.3277 45.6034 43.267 44.9004 43.9599C44.1974 44.6527 43.2442 45.0424 42.25 45.0435H34.75C33.7558 45.0424 32.8026 44.6527 32.0996 43.9599C31.3966 43.267 31.0011 42.3277 31 41.3479V40.6088C31.0011 39.629 31.3966 38.6897 32.0996 37.9968C32.8026 37.304 33.7558 36.9143 34.75 36.9132ZM32.5 41.3479C32.5007 41.9358 32.7379 42.4994 33.1597 42.9151C33.5816 43.3308 34.1535 43.5646 34.75 43.5653H42.25C42.8465 43.5646 43.4184 43.3308 43.8403 42.9151C44.2621 42.4994 44.4993 41.9358 44.5 41.3479V40.6088C44.4993 40.0209 44.2621 39.4573 43.8403 39.0416C43.4184 38.6259 42.8465 38.3921 42.25 38.3914H34.75C34.1535 38.3921 33.5816 38.6259 33.1597 39.0416C32.7379 39.4573 32.5007 40.0209 32.5 40.6088V41.3479ZM34 40.9784C34 41.1976 34.066 41.412 34.1896 41.5943C34.3132 41.7766 34.4889 41.9187 34.6945 42.0026C34.9 42.0866 35.1262 42.1085 35.3445 42.0657C35.5627 42.023 35.7632 41.9174 35.9205 41.7623C36.0778 41.6073 36.185 41.4097 36.2284 41.1946C36.2718 40.9796 36.2495 40.7567 36.1644 40.5541C36.0792 40.3515 35.935 40.1783 35.75 40.0565C35.565 39.9347 35.3475 39.8697 35.125 39.8697C34.8267 39.87 34.5408 39.9869 34.3299 40.1947C34.119 40.4026 34.0003 40.6844 34 40.9784ZM40.75 40.9784C40.75 41.1976 40.816 41.412 40.9396 41.5943C41.0632 41.7766 41.2389 41.9187 41.4445 42.0026C41.65 42.0866 41.8762 42.1085 42.0945 42.0657C42.3127 42.023 42.5132 41.9174 42.6705 41.7623C42.8278 41.6073 42.935 41.4097 42.9784 41.1946C43.0218 40.9796 42.9995 40.7567 42.9144 40.5541C42.8292 40.3515 42.685 40.1783 42.5 40.0565C42.315 39.9347 42.0975 39.8697 41.875 39.8697C41.5767 39.87 41.2908 39.9869 41.0799 40.1947C40.869 40.4026 40.7503 40.6844 40.75 40.9784ZM31 31.0002C31.6649 31.001 32.3108 31.2192 32.8365 31.6204C33.3622 32.0216 33.738 32.5833 33.9051 33.2176H43.0949C43.2774 32.5208 43.7116 31.9135 44.3159 31.5096C44.9203 31.1057 45.6534 30.9329 46.3778 31.0236C47.1022 31.1142 47.7682 31.4622 48.251 32.0021C48.7337 32.5421 49 33.2371 49 33.9567V41.3479C48.998 43.1115 48.2862 44.8024 47.0208 46.0495C45.7553 47.2965 44.0396 47.998 42.25 48H34.75C32.9604 47.998 31.2447 47.2965 29.9792 46.0495C28.7138 44.8024 28.002 43.1115 28 41.3479V33.9567C28.0009 33.1729 28.3172 32.4214 28.8797 31.8671C29.4421 31.3129 30.2046 31.0011 31 31.0002ZM29.5 41.3479C29.5016 42.7196 30.0552 44.0347 31.0394 45.0047C32.0236 45.9746 33.3581 46.5202 34.75 46.5218H42.25C43.6419 46.5202 44.9764 45.9746 45.9606 45.0047C46.9448 44.0347 47.4984 42.7196 47.5 41.3479V33.9567C47.5 33.5646 47.342 33.1886 47.0607 32.9114C46.7794 32.6342 46.3978 32.4785 46 32.4785C45.6022 32.4785 45.2206 32.6342 44.9393 32.9114C44.658 33.1886 44.5 33.5646 44.5 33.9567C44.5 34.1527 44.421 34.3407 44.2803 34.4793C44.1397 34.618 43.9489 34.6958 43.75 34.6958H33.25C33.0511 34.6958 32.8603 34.618 32.7197 34.4793C32.579 34.3407 32.5 34.1527 32.5 33.9567C32.5 33.5646 32.342 33.1886 32.0607 32.9114C31.7794 32.6342 31.3978 32.4785 31 32.4785C30.6022 32.4785 30.2206 32.6342 29.9393 32.9114C29.658 33.1886 29.5 33.5646 29.5 33.9567V41.3479Z" fill="white"/>
</svg>
