<svg width="226" height="352" viewBox="0 0 226 352" fill="none" xmlns="http://www.w3.org/2000/svg">
<path fill-rule="evenodd" clip-rule="evenodd" d="M110.175 33.3344C106.146 28.6054 103.419 22.81 103.875 16.316C105.187 -2.39489 131.234 1.72126 136.3 11.1649C141.367 20.6086 140.765 44.5632 134.217 46.251C131.605 46.9242 126.042 45.2753 120.381 41.8627L123.934 67.0044H102.951L110.175 33.3344Z" fill="#B28B67"/>
<path fill-rule="evenodd" clip-rule="evenodd" d="M127.046 12.5345C124.199 14.1274 122.172 17.1121 119.733 21.0271C119.139 20.7936 118.492 20.6654 117.815 20.6654C114.917 20.6654 112.569 23.014 112.569 25.9113C112.569 27.3821 113.174 28.7115 114.149 29.6641C112.935 31.3774 111.575 33.1672 110.016 35.014C104.199 31.524 99.8722 21.3521 105.426 11.5324C110.205 -8.13705 137.284 4.07157 142.494 0.754235C143.633 7.89194 139.96 13.6472 127.046 12.5345Z" fill="#191847"/>
<path fill-rule="evenodd" clip-rule="evenodd" d="M102.106 142.909L145.019 251.523L173.801 343.347H185.167L141.165 142.909L102.106 142.909Z" fill="#997659"/>
<path fill-rule="evenodd" clip-rule="evenodd" d="M93.4644 142.909C93.0074 181.076 86.3432 232.463 85.2785 234.842C84.5687 236.428 60.0649 256.599 11.7671 295.353L19.5951 303.73C76.582 270.503 106.394 251.674 109.031 247.242C112.987 240.594 125.865 179.423 136.204 142.909H93.4644Z" fill="#B28B67"/>
<path fill-rule="evenodd" clip-rule="evenodd" d="M10.7204 292.557C8.09143 293.486 6.2804 294.367 5.28735 295.201C4.07956 296.214 2.48594 297.894 0.506471 300.241C1.68215 301.642 12.2481 314.234 32.2045 338.017C36.2736 336.276 37.5501 334.239 36.0342 331.907C34.5182 329.574 33.2776 327.621 32.3123 326.047L25.4068 301.921C25.2739 301.457 24.7899 301.189 24.3256 301.321C24.3177 301.324 24.3098 301.326 24.3019 301.329L20.6171 302.497C18.0607 301.306 16.2689 300.098 15.2417 298.874C14.4072 297.879 13.6563 296.169 12.9892 293.742L12.9892 293.742C12.7332 292.811 11.7707 292.264 10.8395 292.52C10.7994 292.531 10.7597 292.543 10.7204 292.557Z" fill="#E4E4E4"/>
<path fill-rule="evenodd" clip-rule="evenodd" d="M169.147 339.108C168.169 341.719 167.68 343.673 167.68 344.969C167.68 346.546 167.943 348.847 168.468 351.872C170.297 351.872 186.735 351.872 217.781 351.872C219.063 347.635 218.323 345.348 215.562 345.01C212.801 344.672 210.508 344.367 208.682 344.095L185.761 333.877C185.32 333.68 184.803 333.879 184.607 334.32C184.603 334.327 184.6 334.335 184.597 334.342L183.124 337.916C180.568 339.109 178.491 339.705 176.893 339.705C175.594 339.705 173.801 339.181 171.514 338.132L171.514 338.132C170.636 337.729 169.598 338.115 169.195 338.993C169.178 339.031 169.162 339.069 169.147 339.108Z" fill="#E4E4E4"/>
<path fill-rule="evenodd" clip-rule="evenodd" d="M130.959 333.889L184.996 328.025L144.948 142.909H96.5488L130.959 333.889Z" fill="#69A1AC"/>
<path fill-rule="evenodd" clip-rule="evenodd" d="M22.9448 281.839L58.3899 323.794C95.7234 283.019 117.489 256.413 123.686 243.977C129.884 231.54 135.455 197.851 140.4 142.909H85.9119C83.2107 191.244 81.3899 216.537 80.4495 218.786C79.5091 221.036 60.3409 242.053 22.9448 281.839Z" fill="#89C5CC"/>
<path fill-rule="evenodd" clip-rule="evenodd" d="M180.991 132.34L206.687 157.245C214.163 160.414 220.289 163.912 225.064 167.741C226.138 169.028 227.307 171.494 222.255 170.391C217.202 169.287 211.837 168.352 210.888 169.985C209.938 171.617 212.736 174.119 210.981 176.256C209.811 177.68 205.876 173.149 199.177 162.663L172.457 147.012L180.991 132.34ZM55.3412 109.8L75.2037 109.874C60.0758 158.57 52.0455 184.067 51.1126 186.364C49.0137 191.532 53.4553 199.403 55.3547 203.633C49.1684 206.383 49.8276 196.197 42.0238 199.805C34.9009 203.097 29.4825 209.063 21.2529 204.018C20.2412 203.397 19.1324 201.062 21.8113 199.237C28.4853 194.69 38.1029 186.733 39.4024 184.113C41.1745 180.541 46.4874 155.77 55.3412 109.8Z" fill="#B28B67"/>
<path fill-rule="evenodd" clip-rule="evenodd" d="M115.865 53.8176L123.709 52.4809C136.065 95.8766 199.549 125.457 203.447 141.679C204.876 147.628 200.566 150.636 202.792 152.448L192.597 159.863C190.871 157.862 187.187 161.522 179.493 158.962C171.799 156.401 115.865 105.202 115.865 53.8176Z" fill="#DB2721"/>
<path fill-rule="evenodd" clip-rule="evenodd" d="M129.06 59.5869C128.155 117.039 161.583 131.695 154.137 154.742C147.988 173.775 89.1364 194.234 78.9525 175.578C74.8302 168.026 72.9598 158.893 72.7476 148.963C70.1448 156.592 68.0863 163.159 66.572 168.666C63.9597 178.164 53.8324 179.674 53.8324 183.334L40.4897 179.674C41.3947 174.703 35.1047 172.282 36.7912 161.176C44.3478 111.413 64.6511 75.3408 97.701 52.9604L98.0505 47.9948C98.1892 46.0695 99.8591 44.6179 101.785 44.7485L126.477 46.4641C128.404 46.5948 129.858 48.2653 129.724 50.1922C129.724 50.1932 129.724 50.1943 129.721 50.1951L129.06 59.5869Z" fill="#FF4133"/>
</svg>
